<svg width="304" height="107" viewBox="0 0 304 107" fill="none" xmlns="http://www.w3.org/2000/svg">
<path d="M136.693 97.544C160.994 97.544 175.735 81.4899 175.735 57.6857C175.735 33.8311 160.994 17.7771 136.693 17.7771C112.392 17.7771 97.6503 33.8311 97.6503 57.6857C97.6503 81.4899 112.392 97.544 136.693 97.544ZM136.844 78.9736C127.737 78.9736 122.706 70.3175 122.706 57.5347C122.706 44.7016 127.737 35.9951 136.844 35.9951C145.648 35.9951 150.68 44.7016 150.68 57.5347C150.68 70.3175 145.648 78.9736 136.844 78.9736Z" fill="#9B51E0"/>
<path d="M227.709 18.7836H213.772V0.263611H189.17V18.7836H178.956V36.901H189.17V74.4946C189.019 90.146 199.182 97.9969 216.539 97.1917C222.476 96.8897 226.753 95.6819 229.118 94.9773L225.394 77.2122C224.338 77.4639 221.873 77.9671 220.011 77.9671C216.036 77.9671 213.772 76.3567 213.772 71.777V36.901H227.709V18.7836Z" fill="#9B51E0"/>
<path d="M257.797 97.393C268.564 97.393 276.01 93.2159 280.236 85.3147H280.84V96.0845H303.983V43.5441C303.983 27.1881 289.443 17.7771 269.771 17.7771C248.992 17.7771 237.219 28.2449 235.257 42.3362L257.948 43.1414C259.004 38.2095 263.079 35.1899 269.57 35.1899C275.607 35.1899 279.431 38.1088 279.431 43.2924V43.5441C279.431 48.2747 274.299 49.2812 261.117 50.4387C245.47 51.7472 232.389 57.5347 232.389 74.6456C232.389 89.9447 243.005 97.393 257.797 97.393ZM265.394 81.2886C259.709 81.2886 255.684 78.571 255.684 73.4378C255.684 68.4555 259.608 65.4359 266.601 64.3791C271.18 63.7248 276.815 62.7183 279.582 61.2588V68.6065C279.582 76.1554 273.243 81.2886 265.394 81.2886Z" fill="#9B51E0"/>
<path d="M35.5695 40.6277C38.1102 31.5191 44.6395 22.2391 60.3479 16.6814C77.4196 19.6561 90.3984 34.5514 90.3984 52.4789V94.8733C90.3984 95.2786 90.3918 95.6824 90.3786 96.0845H60.125V50.0564C60.125 43.3667 54.7034 37.9437 48.0156 37.9437H43.1719C40.2925 37.9437 37.6478 38.9489 35.5695 40.6277Z" fill="#9B51E0" fill-opacity="0.75"/>
<path d="M0.789062 52.4789C0.789062 32.4099 17.0537 16.1409 37.1172 16.1409H52.8594C53.2464 16.1409 53.6321 16.1469 54.0162 16.1589C34.728 22.6151 30.1422 37.5506 29.8653 49.4748C29.8562 49.6675 29.8516 49.8614 29.8516 50.0564V106.892L15.3203 100.93L0.789062 106.892V96.0845H0.808865C0.795697 95.6824 0.789062 95.2786 0.789062 94.8733V52.4789Z" fill="#9B51E0"/>
</svg>
